<svg xmlns="http://www.w3.org/2000/svg" viewBox="0 0 72 72" width="72" height="72" preserveAspectRatio="xMidYMid slice" style="width: 100%; height: 100%; transform: translate3d(0px, 0px, 0px); content-visibility: visible;"><defs><clipPath id="__lottie_element_291"><rect width="72" height="72" x="0" y="0"></rect></clipPath></defs><g clip-path="url(#__lottie_element_291)"><g transform="matrix(0.6400220990180969,0,0,0.6400220990180969,35.70100021362305,36.677459716796875)" opacity="1" style="display: block;"><g opacity="1" transform="matrix(3,0,0,3,0,0)"><path fill="rgb(255,255,255)" fill-opacity="1" d=" M0.8149999976158142,4.76200008392334 C0.8149999976158142,4.76200008392334 0.8149999976158142,-4.929999828338623 0.8149999976158142,-4.929999828338623 C0.8149999976158142,-4.929999828338623 -5.2179999351501465,-5.49399995803833 -9.244999885559082,-1.1749999523162842 C-13.272000312805176,3.1440000534057617 -13.517000198364258,11.817000389099121 -10.842000007629395,7.74399995803833 C-8.062000274658203,3.510999917984009 0.8149999976158142,4.76200008392334 0.8149999976158142,4.76200008392334z M13.51200008392334,0.34700000286102295 C13.51200008392334,0.34700000286102295 0.8149999976158142,-11.79699993133545 0.8149999976158142,-11.79699993133545 C0.8149999976158142,-11.79699993133545 0.8149999976158142,-4.953999996185303 0.8149999976158142,-4.953999996185303 C-9.777999877929688,-4.953999996185303 -11.656999588012695,2.3469998836517334 -12.576000213623047,7.0229997634887695 C-12.795999526977539,9.564000129699707 -11.71399974822998,9.385000228881836 -11.437000274658203,8.87600040435791 C-8.461000442504883,3.4140000343322754 0.8149999976158142,5.085000038146973 0.8149999976158142,5.085000038146973 C0.8149999976158142,5.085000038146973 0.8149999976158142,11.5649995803833 0.8149999976158142,11.5649995803833 C0.8149999976158142,11.5649995803833 13.51200008392334,0.34700000286102295 13.51200008392334,0.34700000286102295z"></path></g></g></g></svg>